# xmcd
#
# Track frame offsets:
#	150
#	8668
#	15565
#	29516
#	41429
#	48262
#	60112
#	72656
#	89830
#
# Disc length: 1405 seconds
#
# Revision: 1
# Processed by: cddbd v1.5.2PL0 Copyright (c) Steve Scherf et al.
# Submitted via: audiograbber 1.83.01
#
DISCID=6c057b09
DTITLE=The Kingsmen - Best of The Kingsmen Volume 3 (Honoring the Heritage)
DYEAR=2010
DGENRE=Southern Gospel
TTITLE0=Traveling Home
TTITLE1=When They Call My Name
TTITLE2=I'm So Glad
TTITLE3=Called Out
TTITLE4=When My Feet Touch the Streets of Gold
TTITLE5=Holiness Fire
TTITLE6=God Made A Way
TTITLE7=Inside The Gate
TTITLE8=He's All I Need
EXTD=
EXTT0=
EXTT1=
EXTT2=
EXTT3=
EXTT4=
EXTT5=
EXTT6=
EXTT7=
EXTT8=
PLAYORDER=
